<svg xmlns="http://www.w3.org/2000/svg" viewBox="0 0 12.68 21.52"><defs><style>.cls-1{fill:#b0b2cf;fill-rule:evenodd;}</style></defs><title>flamitas-bw</title><g id="Layer_2" data-name="Layer 2"><g id="Capa_1" data-name="Capa 1"><path class="cls-1" d="M6.84,21.52l-2.06-2a4,4,0,0,1-1.22-2.84,4.19,4.19,0,0,1,.56-2L8.79,6.78a4.8,4.8,0,0,0,.67-2.5,2.75,2.75,0,0,0-.05-.67l1.72,1.67A5.31,5.31,0,0,1,12.68,9,4.76,4.76,0,0,1,12,11.62l-4.5,7.67a4.45,4.45,0,0,0-.61,2.22"/><path class="cls-1" d="M7.28,1.45A4,4,0,0,1,8.51,4.28a4.14,4.14,0,0,1-.56,2l-4.67,7.9a5.22,5.22,0,0,0-.67,2.5,3.37,3.37,0,0,0,.06.72L1.39,16.13A5,5,0,0,1,0,12.57,5,5,0,0,1,.67,10l4.5-7.62A4.48,4.48,0,0,0,5.89,0Z"/></g></g></svg>